# xmcd
#
# Track frame offsets: 
#        150
#        17423
#        38690
#        60858
#        80502
#        102563
#        120792
#        141174
#        162023
#        179573
#
# Disc length: 2595 seconds
#
# Revision: 0
# Processed by: cddbd v1.5.2PL0 Copyright (c) Steve Scherf et al.
# Submitted via: ExactAudioCopyFreeDBPlugin 1.0
#
DISCID=700a210a
DTITLE=The Southern Companion - 1000 Days of Rain
DYEAR=2015
DGENRE=Country
TTITLE0=Crash
TTITLE1=Feels like years
TTITLE2=This love of mine
TTITLE3=Heaven knows
TTITLE4=The leaving kind
TTITLE5=Lullaby for G
TTITLE6=Dead man walking
TTITLE7=Waiting on a Corner
TTITLE8=Wrong side of the 70's
TTITLE9=Letting you go
EXTD=
EXTT0=
EXTT1=
EXTT2=
EXTT3=
EXTT4=
EXTT5=
EXTT6=
EXTT7=
EXTT8=
EXTT9=
PLAYORDER=
